<svg width="24" height="24" viewBox="0 0 24 24" fill="none" xmlns="http://www.w3.org/2000/svg">
    <path className="fillable" fill-rule="evenodd" clip-rule="evenodd"
        d="M14.751 5.93408C17.1915 8.38743 17.1915 12.3651 14.751 14.8184C12.3106 17.2718 8.35383 17.2718 5.91339 14.8184C3.47294 12.3651 3.47294 8.38743 5.91339 5.93408C8.35383 3.48073 12.3106 3.48073 14.751 5.93408ZM16.224 4.45335C19.4779 7.72448 19.4779 13.028 16.224 16.2992C12.97 19.5703 7.69438 19.5703 4.44045 16.2992C1.18652 13.028 1.18652 7.72448 4.44045 4.45335C7.69438 1.18222 12.97 1.18222 16.224 4.45335ZM16.7822 16.7545C16.3755 17.1634 16.3755 17.8263 16.7822 18.2352L20.2221 21.6933C20.6289 22.1022 21.2883 22.1022 21.6951 21.6933C22.1018 21.2844 22.1018 20.6215 21.6951 20.2126L18.2552 16.7545C17.8484 16.3456 17.189 16.3456 16.7822 16.7545Z"
        fill="#312F2E" />
</svg>